<svg width="206" height="30" viewBox="0 0 206 30" fill="none" xmlns="http://www.w3.org/2000/svg">
<path d="M0.924 14.188C0.924 12.62 1.232 11.2293 1.848 10.016C2.48267 8.80267 3.34133 7.86933 4.424 7.216C5.50667 6.56267 6.71067 6.236 8.036 6.236C9.044 6.236 10.0053 6.46 10.92 6.908C11.8347 7.33733 12.5627 7.916 13.104 8.644V1.28H17.08V22H13.104V19.704C12.6187 20.4693 11.9373 21.0853 11.06 21.552C10.1827 22.0187 9.16533 22.252 8.008 22.252C6.70133 22.252 5.50667 21.916 4.424 21.244C3.34133 20.572 2.48267 19.6293 1.848 18.416C1.232 17.184 0.924 15.7747 0.924 14.188ZM13.132 14.244C13.132 13.292 12.9453 12.48 12.572 11.808C12.1987 11.1173 11.6947 10.5947 11.06 10.24C10.4253 9.86667 9.744 9.68 9.016 9.68C8.288 9.68 7.616 9.85733 7 10.212C6.384 10.5667 5.88 11.0893 5.488 11.78C5.11467 12.452 4.928 13.2547 4.928 14.188C4.928 15.1213 5.11467 15.9427 5.488 16.652C5.88 17.3427 6.384 17.8747 7 18.248C7.63467 18.6213 8.30667 18.808 9.016 18.808C9.744 18.808 10.4253 18.6307 11.06 18.276C11.6947 17.9027 12.1987 17.38 12.572 16.708C12.9453 16.0173 13.132 15.196 13.132 14.244ZM19.9006 14.188C19.9006 12.62 20.2086 11.2293 20.8246 10.016C21.4592 8.80267 22.3086 7.86933 23.3726 7.216C24.4552 6.56267 25.6592 6.236 26.9846 6.236C28.1419 6.236 29.1499 6.46933 30.0086 6.936C30.8859 7.40267 31.5859 7.99067 32.1086 8.7V6.488H36.0566V22H32.1086V19.732C31.6046 20.46 30.9046 21.0667 30.0086 21.552C29.1312 22.0187 28.1139 22.252 26.9566 22.252C25.6499 22.252 24.4552 21.916 23.3726 21.244C22.3086 20.572 21.4592 19.6293 20.8246 18.416C20.2086 17.184 19.9006 15.7747 19.9006 14.188ZM32.1086 14.244C32.1086 13.292 31.9219 12.48 31.5486 11.808C31.1752 11.1173 30.6712 10.5947 30.0366 10.24C29.4019 9.86667 28.7206 9.68 27.9926 9.68C27.2646 9.68 26.5926 9.85733 25.9766 10.212C25.3606 10.5667 24.8566 11.0893 24.4646 11.78C24.0912 12.452 23.9046 13.2547 23.9046 14.188C23.9046 15.1213 24.0912 15.9427 24.4646 16.652C24.8566 17.3427 25.3606 17.8747 25.9766 18.248C26.6112 18.6213 27.2832 18.808 27.9926 18.808C28.7206 18.808 29.4019 18.6307 30.0366 18.276C30.6712 17.9027 31.1752 17.38 31.5486 16.708C31.9219 16.0173 32.1086 15.196 32.1086 14.244ZM43.8051 1.28V22H39.8851V1.28H43.8051ZM62.0981 13.908C62.0981 14.468 62.0608 14.972 61.9861 15.42H50.6461C50.7394 16.54 51.1314 17.4173 51.8221 18.052C52.5128 18.6867 53.3621 19.004 54.3701 19.004C55.8261 19.004 56.8621 18.3787 57.4781 17.128H61.7061C61.2581 18.6213 60.3994 19.8533 59.1301 20.824C57.8608 21.776 56.3021 22.252 54.4541 22.252C52.9608 22.252 51.6168 21.9253 50.4221 21.272C49.2461 20.6 48.3221 19.6573 47.6501 18.444C46.9968 17.2307 46.6701 15.8307 46.6701 14.244C46.6701 12.6387 46.9968 11.2293 47.6501 10.016C48.3034 8.80267 49.2181 7.86933 50.3941 7.216C51.5701 6.56267 52.9234 6.236 54.4541 6.236C55.9288 6.236 57.2448 6.55333 58.4021 7.188C59.5781 7.82267 60.4834 8.728 61.1181 9.904C61.7714 11.0613 62.0981 12.396 62.0981 13.908ZM58.0381 12.788C58.0194 11.78 57.6554 10.9773 56.9461 10.38C56.2368 9.764 55.3688 9.456 54.3421 9.456C53.3714 9.456 52.5501 9.75467 51.8781 10.352C51.2248 10.9307 50.8234 11.7427 50.6741 12.788H58.0381ZM68.8793 8.896C69.3833 8.07467 70.0367 7.43067 70.8393 6.964C71.6607 6.49733 72.594 6.264 73.6393 6.264V10.38H72.6033C71.3713 10.38 70.438 10.6693 69.8033 11.248C69.1873 11.8267 68.8793 12.8347 68.8793 14.272V22H64.9593V6.488H68.8793V8.896ZM89.1251 22.224C87.3704 22.224 85.9331 21.8227 84.8131 21.02C83.7118 20.1987 83.0958 19.088 82.9651 17.688H84.9811C85.0744 18.5467 85.4758 19.2467 86.1851 19.788C86.9131 20.3107 87.8838 20.572 89.0971 20.572C90.1611 20.572 90.9918 20.32 91.5891 19.816C92.2051 19.312 92.5131 18.6867 92.5131 17.94C92.5131 17.4173 92.3451 16.988 92.0091 16.652C91.6731 16.316 91.2438 16.0547 90.7211 15.868C90.2171 15.6627 89.5264 15.448 88.6491 15.224C87.5104 14.9253 86.5864 14.6267 85.8771 14.328C85.1678 14.0293 84.5611 13.5907 84.0571 13.012C83.5718 12.4147 83.3291 11.6213 83.3291 10.632C83.3291 9.88533 83.5531 9.19467 84.0011 8.56C84.4491 7.92533 85.0838 7.42133 85.9051 7.048C86.7264 6.67467 87.6598 6.488 88.7051 6.488C90.3478 6.488 91.6731 6.908 92.6811 7.748C93.6891 8.56933 94.2304 9.708 94.3051 11.164H92.3451C92.2891 10.268 91.9344 9.54933 91.2811 9.008C90.6464 8.448 89.7691 8.168 88.6491 8.168C87.6598 8.168 86.8571 8.40133 86.2411 8.868C85.6251 9.33467 85.3171 9.91333 85.3171 10.604C85.3171 11.2013 85.4944 11.696 85.8491 12.088C86.2224 12.4613 86.6798 12.76 87.2211 12.984C87.7624 13.1893 88.4904 13.4227 89.4051 13.684C90.5064 13.9827 91.3838 14.272 92.0371 14.552C92.6904 14.832 93.2504 15.2427 93.7171 15.784C94.1838 16.3253 94.4264 17.044 94.4451 17.94C94.4451 18.7613 94.2211 19.4987 93.7731 20.152C93.3251 20.7867 92.6998 21.2907 91.8971 21.664C91.0944 22.0373 90.1704 22.224 89.1251 22.224ZM105.415 6.432C106.572 6.432 107.608 6.67467 108.523 7.16C109.456 7.64533 110.184 8.392 110.707 9.4C111.248 10.3893 111.519 11.6027 111.519 13.04V22H109.587V13.264C109.587 11.6027 109.167 10.3333 108.327 9.456C107.505 8.57867 106.376 8.14 104.939 8.14C103.464 8.14 102.288 8.60667 101.411 9.54C100.533 10.4733 100.095 11.8453 100.095 13.656V22H98.1345V1.28H100.095V9.316C100.58 8.40133 101.289 7.692 102.223 7.188C103.175 6.684 104.239 6.432 105.415 6.432ZM114.957 14.328C114.957 12.76 115.265 11.388 115.881 10.212C116.516 9.01733 117.384 8.10267 118.485 7.468C119.605 6.81467 120.865 6.488 122.265 6.488C123.721 6.488 124.972 6.824 126.017 7.496C127.081 8.168 127.847 9.02667 128.313 10.072V6.712H130.273V22H128.313V18.612C127.828 19.6573 127.053 20.5253 125.989 21.216C124.944 21.888 123.693 22.224 122.237 22.224C120.856 22.224 119.605 21.8973 118.485 21.244C117.384 20.5907 116.516 19.6667 115.881 18.472C115.265 17.2773 114.957 15.896 114.957 14.328ZM128.313 14.356C128.313 13.124 128.061 12.0413 127.557 11.108C127.053 10.1747 126.363 9.456 125.485 8.952C124.627 8.448 123.675 8.196 122.629 8.196C121.547 8.196 120.576 8.43867 119.717 8.924C118.859 9.40933 118.177 10.1187 117.673 11.052C117.188 11.9667 116.945 13.0587 116.945 14.328C116.945 15.5787 117.188 16.68 117.673 17.632C118.177 18.5653 118.859 19.284 119.717 19.788C120.576 20.2733 121.547 20.516 122.629 20.516C123.675 20.516 124.627 20.264 125.485 19.76C126.363 19.256 127.053 18.5373 127.557 17.604C128.061 16.6707 128.313 15.588 128.313 14.356ZM136.708 9.428C137.137 8.476 137.79 7.73867 138.668 7.216C139.564 6.69333 140.656 6.432 141.944 6.432V8.476H141.412C139.993 8.476 138.854 8.85867 137.996 9.624C137.137 10.3893 136.708 11.668 136.708 13.46V22H134.748V6.712H136.708V9.428ZM145.872 3.828C145.48 3.828 145.144 3.688 144.864 3.408C144.584 3.128 144.444 2.78267 144.444 2.372C144.444 1.96133 144.584 1.62533 144.864 1.364C145.144 1.084 145.48 0.943999 145.872 0.943999C146.264 0.943999 146.6 1.084 146.88 1.364C147.16 1.62533 147.3 1.96133 147.3 2.372C147.3 2.78267 147.16 3.128 146.88 3.408C146.6 3.688 146.264 3.828 145.872 3.828ZM146.852 6.712V22H144.892V6.712H146.852ZM153.223 10.072C153.708 9.04533 154.473 8.196 155.519 7.524C156.583 6.83333 157.843 6.488 159.299 6.488C160.68 6.488 161.921 6.81467 163.023 7.468C164.143 8.10267 165.011 9.01733 165.627 10.212C166.261 11.388 166.579 12.76 166.579 14.328C166.579 15.896 166.261 17.2773 165.627 18.472C165.011 19.6667 164.143 20.5907 163.023 21.244C161.921 21.8973 160.68 22.224 159.299 22.224C157.861 22.224 156.611 21.888 155.547 21.216C154.483 20.5253 153.708 19.6667 153.223 18.64V29.224H151.291V6.712H153.223V10.072ZM164.591 14.328C164.591 13.0587 164.339 11.9667 163.835 11.052C163.349 10.1187 162.677 9.40933 161.819 8.924C160.96 8.43867 159.989 8.196 158.907 8.196C157.861 8.196 156.9 8.448 156.023 8.952C155.164 9.456 154.483 10.1747 153.979 11.108C153.475 12.0413 153.223 13.124 153.223 14.356C153.223 15.588 153.475 16.6707 153.979 17.604C154.483 18.5373 155.164 19.256 156.023 19.76C156.9 20.264 157.861 20.516 158.907 20.516C159.989 20.516 160.96 20.2733 161.819 19.788C162.677 19.284 163.349 18.5653 163.835 17.632C164.339 16.68 164.591 15.5787 164.591 14.328ZM176.877 22.224C175.44 22.224 174.143 21.9067 172.985 21.272C171.847 20.6187 170.941 19.704 170.269 18.528C169.616 17.3333 169.289 15.9427 169.289 14.356C169.289 12.7693 169.625 11.388 170.297 10.212C170.969 9.01733 171.884 8.10267 173.041 7.468C174.199 6.81467 175.496 6.488 176.933 6.488C178.371 6.488 179.668 6.81467 180.825 7.468C182.001 8.10267 182.916 9.01733 183.569 10.212C184.241 11.388 184.577 12.7693 184.577 14.356C184.577 15.924 184.241 17.3053 183.569 18.5C182.897 19.6947 181.973 20.6187 180.797 21.272C179.621 21.9067 178.315 22.224 176.877 22.224ZM176.877 20.516C177.885 20.516 178.819 20.292 179.677 19.844C180.536 19.3773 181.227 18.6867 181.749 17.772C182.291 16.8387 182.561 15.7 182.561 14.356C182.561 13.012 182.3 11.8827 181.777 10.968C181.255 10.0347 180.564 9.344 179.705 8.896C178.847 8.42933 177.913 8.196 176.905 8.196C175.897 8.196 174.964 8.42933 174.105 8.896C173.247 9.344 172.556 10.0347 172.033 10.968C171.529 11.8827 171.277 13.012 171.277 14.356C171.277 15.7 171.529 16.8387 172.033 17.772C172.556 18.6867 173.237 19.3773 174.077 19.844C174.936 20.292 175.869 20.516 176.877 20.516ZM193.582 20.096L198.734 6.712H200.806L194.674 22H192.462L186.33 6.712H188.43L193.582 20.096Z" fill="white"/>
<path d="M203.799 22.14C203.388 22.14 203.043 22 202.763 21.72C202.501 21.44 202.371 21.0947 202.371 20.684C202.371 20.2733 202.501 19.9373 202.763 19.676C203.043 19.396 203.388 19.256 203.799 19.256C204.191 19.256 204.517 19.396 204.779 19.676C205.059 19.9373 205.199 20.2733 205.199 20.684C205.199 21.0947 205.059 21.44 204.779 21.72C204.517 22 204.191 22.14 203.799 22.14Z" fill="#9747FF"/>
</svg>
